<svg id="Layer_1" data-name="Layer 1" xmlns="http://www.w3.org/2000/svg" viewBox="0 0 141.73 37.7">
    <defs>
        <style>
            .whiteColor{fill:#fff;}
            .redColor{fill:#e93d45;}
        </style>
    </defs>
    <path class="whiteColor" d="M121.84,30.18h-1.77V21.45h2.16l2.43,4.88,2.45-4.9h2.11v8.74h-1.71V24.59l-2.32,4.6h-1s-1.39-2.75-2.31-4.6Z"/>
    <path class="whiteColor" d="M110.55,21.44H116v1.65c-1.16.06-2.42-.06-3.68,0v1.83h3.29c0,.6,0,1.23,0,1.89-1.13.05-2.19-.06-3.29,0,0,.51,0,1.13,0,1.74,1.29.06,2.47-.05,3.69,0v1.61h-5.42Z"/>
    <path class="whiteColor" d="M83.43,28.11l.9,1.41c-2.32,1.38-4.47,1.29-6.1-.65a4.35,4.35,0,0,1,.43-6.52c1.67-1.54,3.63-1.48,5.7-.31l-.91,1.4c-1.6-.66-3.1-.74-4.11.89a2.62,2.62,0,0,0,.19,3.23C80.6,28.89,81.94,28.93,83.43,28.11Z"/>
    <path class="whiteColor" d="M137.64,30.14h-2V25.72s-1.88-2.86-3-4.26h2.12l1.82,2.81,1.81-2.82h2.06c-1.07,1.42-2.85,4.27-2.85,4.27Z"/>
    <path class="whiteColor" d="M105.91,23.33c-1.73-2.68-4.46-1.85-7-1.94v8.85c2.51-.14,5.21.75,7-1.85A4.31,4.31,0,0,0,105.91,23.33Zm-1.6,4.06c-.9,1.26-2.22,1.16-3.66,1V23.29c1.39-.17,2.74-.36,3.67.94A2.57,2.57,0,0,1,104.31,27.39Z"/>
    <path class="whiteColor" d="M71.52,21.42H69.31c-.92,2.87-1.83,5.74-2.78,8.72h1.86L69,28.4h2.75l.66,1.74h1.87Zm-2,5.15.91-2.95.94,2.95Z"/>
    <path class="whiteColor" d="M92.47,21.46H90.25l-2.79,8.71h1.88L90,28.42h2.78c.24.62.47,1.19.69,1.74h1.86Zm-2,5.09,1-2.84.94,2.84Z"/>
    <path class="whiteColor" d="M56.43,28.53c-.27-1.32-5.16-24.79-5.57-26.86C50.6.31,50.28,0,48.87,0,36.81,0,9.16,0,7.39,0A1.23,1.23,0,0,0,6.17.76C6,1.06,0,29,0,29.1a1.91,1.91,0,0,0,1.79,1.29c1.31,0,13.89,0,18.86,0a1.1,1.1,0,0,1,1.14.65c.75,1.43,1.57,2.82,2.37,4.22a18.52,18.52,0,0,0,1,1.72c.69,1,1.46,1,2.19,0a3.55,3.55,0,0,0,.36-.63c1.38-3.11,4.55-11.19,5.23-11.91.83,1.62,1.76,3.39,2.52,4.91a1.63,1.63,0,0,0,1.64,1c2.44,0,14.28.06,17.76.05C56.18,30.45,56.7,29.79,56.43,28.53Zm-3.63-.82c-4.86,0-9.71,0-14.56,0-.53,0-.67-.39-.84-.73-.89-1.73-3.19-6.3-3.68-6.7a1.16,1.16,0,0,0-1.92.29c-.53,1-1,2-1.43,3.06C29,26.71,27.62,29.79,26.19,33a9.43,9.43,0,0,1-1.25-2c-.49-.81-1-1.62-1.4-2.46A1.73,1.73,0,0,0,22,27.57c-.25,0-.49,0-.74,0H4.31c-.95,0-1-.06-.74-1,.32-1.43,4.79-22.87,4.9-23.35A.46.46,0,0,1,9,2.82H26.12c.81,0,.87.09.87.92,0,3.4,0,10.85.05,11.18a1.4,1.4,0,0,0,1.33,1.17,1.38,1.38,0,0,0,1.33-1.15c.05-.3,0-7.64,0-11,0-1.08,0-1.12,1.05-1.12H47.37c.75,0,.85,0,1,.83.33,1.61,4.66,22.71,4.92,23.44C53.45,27.47,53.26,27.71,52.8,27.71Z"/>
    <path class="whiteColor" d="M10.34,22H9.7a.82.82,0,0,1-.78-.66c-.11-.41.15-.69.49-.89a1.53,1.53,0,0,1,.79-.18H21.34a2,2,0,0,1,.54.07.85.85,0,0,1,.64.89.81.81,0,0,1-.86.76C20.69,22,12.1,22,10.34,22Z"/>
    <path class="whiteColor" d="M11.34,15.45c-.63,0-1-.37-1-.83a1,1,0,0,1,1-.93c.18,0,10.3,0,10.6.08a.84.84,0,0,1,.63.89.76.76,0,0,1-.77.76C21.46,15.43,11.58,15.47,11.34,15.45Z"/>
    <path class="whiteColor" d="M35.56,15.46a3.47,3.47,0,0,1-.91-.08.81.81,0,0,1-.61-.72.74.74,0,0,1,.47-.8,2.07,2.07,0,0,1,1-.19h9.24a2.89,2.89,0,0,1,.72.07c.55.14.74.41.72.9s-.23.71-.82.79a7.58,7.58,0,0,1-.83,0Z"/>
    <path class="whiteColor" d="M12.38,8.89a.9.9,0,0,1-.86-.79,1,1,0,0,1,.75-.91c.32-.1,9.2-.1,9.5,0a.91.91,0,0,1,.75,1,.84.84,0,0,1-.9.74C20.31,8.89,12.59,8.92,12.38,8.89Z"/>
    <path class="whiteColor" d="M35.47,8.91a2.3,2.3,0,0,1-.9-.11.81.81,0,0,1-.1-1.49,2.16,2.16,0,0,1,1-.23l7.85,0a3.58,3.58,0,0,1,1.17.14.73.73,0,0,1,.57.81.75.75,0,0,1-.7.81c-.27,0-.55,0-.82.05Z"/>
    <path class="whiteColor" d="M39.48,22a4.57,4.57,0,0,1-.64,0,.84.84,0,0,1-.73-.71c-.1-.38.17-.63.47-.81a1.78,1.78,0,0,1,1-.19h6.58a3,3,0,0,1,.73.06c.54.12.79.41.77.86a.84.84,0,0,1-.92.8C45.61,22,40.61,22,39.48,22Z"/>
    <path class="whiteColor" d="M75,17.22H72.78l-.94-9.47-1.08,9.47H68.52L66.53,0h2.63L70,10.87,71,0h2l.86,10.83L74.91,0h2.45Zm5.68,0h2.61V0H80.72Zm9.74-2.53h3.17v2.53H87.44v-.91L90.78,2.56H87.63V0h6.16v.9Zm7.07,2.53V0h5.6V2.51H100.2v4.7h1.94V9.56H100.2v5.1h2.93v2.56Z"/>
    <path class="redColor" d="M107.61,17.22V0h1.82v15.4h3.41v1.78Zm9.71,0h1.87V0h-1.87Zm12.48,0-2.86-8.7-.81-2.76V17.22h-1.71V0h1.64l2.6,8.82.76,2.78V0h1.72V17.22Zm6.19,0V0h5.61V1.76h-3.7V7.49h2.67V9.17H137.9v6.32h3.7v1.73Z"/>
</svg>